<?xml version="1.0" standalone="no"?>
<!DOCTYPE svg PUBLIC "-//W3C//DTD SVG 20010904//EN"
 "http://www.w3.org/TR/2001/REC-SVG-20010904/DTD/svg10.dtd">
<svg version="1.0" xmlns="http://www.w3.org/2000/svg"
 width="305.000000pt" height="305.000000pt" viewBox="0 0 305.000000 305.000000"
 preserveAspectRatio="xMidYMid meet">
<metadata>
Created by potrace 1.11, written by Peter Selinger 2001-2013
</metadata>
<g transform="translate(0.000000,305.000000) scale(0.100000,-0.100000)"
fill="#000000" stroke="none">
<path d="M1117 2876 c-98 -19 -189 -37 -202 -40 l-25 -6 0 -276 c0 -259 -1
-276 -17 -269 -10 4 -79 29 -153 57 l-135 50 -164 -5 c-90 -3 -165 -8 -168
-11 -12 -11 -251 -791 -245 -797 4 -4 70 -29 147 -57 109 -40 180 -57 325 -82
102 -17 186 -33 188 -35 2 -2 -93 -127 -211 -277 -162 -205 -212 -276 -204
-284 7 -6 238 -162 514 -347 l502 -336 67 92 c37 51 106 143 152 205 l84 113
38 -54 c37 -52 50 -60 281 -181 l242 -127 26 24 c14 14 145 122 291 241 146
119 284 233 308 252 l42 35 -226 281 c-124 154 -222 284 -217 288 4 5 157 59
339 120 l332 112 -8 31 c-11 47 -177 609 -207 700 l-25 77 -169 1 c-93 1 -173
3 -179 4 -5 1 -78 3 -160 4 l-151 1 7 254 7 254 -209 6 c-640 19 -621 19 -817
-18z"/>
</g>
</svg>
